<svg width="191" height="42" viewBox="0 0 191 42" fill="none" xmlns="http://www.w3.org/2000/svg">
<path d="M78.974 8.868C80.8327 8.868 82.578 9.23067 84.21 9.956C85.8647 10.6587 87.304 11.6333 88.528 12.88C89.752 14.104 90.7153 15.5433 91.418 17.198C92.1433 18.8527 92.506 20.6093 92.506 22.468C92.506 24.3493 92.1433 26.1173 91.418 27.772C90.7153 29.404 89.752 30.832 88.528 32.056C87.304 33.28 85.8647 34.2433 84.21 34.946C82.5553 35.6487 80.7873 36 78.906 36C77.0247 36 75.2567 35.6487 73.602 34.946C71.97 34.2433 70.542 33.28 69.318 32.056C68.094 30.832 67.1307 29.404 66.428 27.772C65.7253 26.1173 65.374 24.3493 65.374 22.468V6.08H72.106V22.468C72.106 23.3973 72.2873 24.2813 72.65 25.12C73.0127 25.936 73.5 26.65 74.112 27.262C74.724 27.874 75.438 28.3613 76.254 28.724C77.0927 29.0867 77.9767 29.268 78.906 29.268C79.858 29.268 80.7533 29.0867 81.592 28.724C82.4307 28.3613 83.156 27.874 83.768 27.262C84.38 26.65 84.8673 25.936 85.23 25.12C85.5927 24.2813 85.774 23.3973 85.774 22.468C85.774 21.516 85.5927 20.6207 85.23 19.782C84.8673 18.9433 84.38 18.218 83.768 17.606C83.156 16.994 82.4307 16.5067 81.592 16.144C80.7533 15.7813 79.858 15.6 78.906 15.6H72.174L78.974 8.868ZM118.098 8.8V36H111.434V25.8H99.6702V36H92.9382V15.464L99.6702 8.8V19.068H111.434V8.8H118.098ZM132.559 8.8C134.44 8.8 136.208 9.16267 137.863 9.888C139.518 10.5907 140.957 11.5653 142.181 12.812C143.405 14.036 144.368 15.4753 145.071 17.13C145.796 18.7847 146.159 20.5413 146.159 22.4V36H139.427V22.4C139.427 21.4707 139.246 20.598 138.883 19.782C138.52 18.9433 138.033 18.218 137.421 17.606C136.809 16.994 136.084 16.5067 135.245 16.144C134.406 15.7813 133.511 15.6 132.559 15.6C131.63 15.6 130.746 15.7813 129.907 16.144C129.091 16.5067 128.377 16.994 127.765 17.606C127.153 18.218 126.666 18.9433 126.303 19.782C125.94 20.598 125.759 21.4707 125.759 22.4C125.759 23.3293 125.94 24.2133 126.303 25.052C126.666 25.868 127.153 26.582 127.765 27.194C128.377 27.806 129.091 28.2933 129.907 28.656C130.746 29.0187 131.63 29.2 132.559 29.2H139.359L132.559 36C130.678 35.9773 128.91 35.6147 127.255 34.912C125.623 34.1867 124.195 33.212 122.971 31.988C121.747 30.764 120.784 29.336 120.081 27.704C119.378 26.0493 119.027 24.2813 119.027 22.4C119.027 20.5413 119.378 18.7847 120.081 17.13C120.784 15.4753 121.747 14.036 122.971 12.812C124.195 11.5653 125.623 10.5907 127.255 9.888C128.91 9.16267 130.678 8.8 132.559 8.8ZM161.336 15.532H157.868V36H151.136V15.532H144.608V8.8H168.068L161.336 15.532ZM178.668 15.532H175.2V36H168.468V15.532H161.94V8.8H185.4L178.668 15.532Z" fill="black"/>
<path d="M184.54 33V36.42H181V33H184.54Z" fill="#FF6800"/>
<path d="M20 42L20 0L0 0L0 42H20Z" fill="#FFBDBD"/>
<path d="M39.5 42C50.2696 42 59 33.2696 59 22.5C59 11.7304 50.2696 3 39.5 3C28.7304 3 20 11.7304 20 22.5C20 33.2696 28.7304 42 39.5 42Z" fill="#4C40F7"/>
</svg>
