<svg width="170" height="33" viewBox="0 0 170 33" fill="none" xmlns="http://www.w3.org/2000/svg">
<path d="M64.864 8.848C66.176 8.848 67.408 9.104 68.56 9.616C69.728 10.112 70.744 10.8 71.608 11.68C72.472 12.544 73.152 13.56 73.648 14.728C74.16 15.896 74.416 17.136 74.416 18.448C74.416 19.776 74.16 21.024 73.648 22.192C73.152 23.344 72.472 24.352 71.608 25.216C70.744 26.08 69.728 26.76 68.56 27.256C67.392 27.752 66.144 28 64.816 28C63.488 28 62.24 27.752 61.072 27.256C59.92 26.76 58.912 26.08 58.048 25.216C57.184 24.352 56.504 23.344 56.008 22.192C55.512 21.024 55.264 19.776 55.264 18.448V6.88H60.016V18.448C60.016 19.104 60.144 19.728 60.4 20.32C60.656 20.896 61 21.4 61.432 21.832C61.864 22.264 62.368 22.608 62.944 22.864C63.536 23.12 64.16 23.248 64.816 23.248C65.488 23.248 66.12 23.12 66.712 22.864C67.304 22.608 67.816 22.264 68.248 21.832C68.68 21.4 69.024 20.896 69.28 20.32C69.536 19.728 69.664 19.104 69.664 18.448C69.664 17.776 69.536 17.144 69.28 16.552C69.024 15.96 68.68 15.448 68.248 15.016C67.816 14.584 67.304 14.24 66.712 13.984C66.12 13.728 65.488 13.6 64.816 13.6H60.064L64.864 8.848ZM98.5514 8.8V28H93.8474V20.8H85.5434V28H80.7914V13.504L85.5434 8.8V16.048H93.8474V8.8H98.5514ZM114.431 8.8C115.759 8.8 117.007 9.056 118.175 9.568C119.343 10.064 120.359 10.752 121.223 11.632C122.087 12.496 122.767 13.512 123.263 14.68C123.775 15.848 124.031 17.088 124.031 18.4V28H119.279V18.4C119.279 17.744 119.151 17.128 118.895 16.552C118.639 15.96 118.295 15.448 117.863 15.016C117.431 14.584 116.919 14.24 116.327 13.984C115.735 13.728 115.103 13.6 114.431 13.6C113.775 13.6 113.151 13.728 112.559 13.984C111.983 14.24 111.479 14.584 111.047 15.016C110.615 15.448 110.271 15.96 110.015 16.552C109.759 17.128 109.631 17.744 109.631 18.4C109.631 19.056 109.759 19.68 110.015 20.272C110.271 20.848 110.615 21.352 111.047 21.784C111.479 22.216 111.983 22.56 112.559 22.816C113.151 23.072 113.775 23.2 114.431 23.2H119.231L114.431 28C113.103 27.984 111.855 27.728 110.687 27.232C109.535 26.72 108.527 26.032 107.663 25.168C106.799 24.304 106.119 23.296 105.623 22.144C105.127 20.976 104.879 19.728 104.879 18.4C104.879 17.088 105.127 15.848 105.623 14.68C106.119 13.512 106.799 12.496 107.663 11.632C108.527 10.752 109.535 10.064 110.687 9.568C111.855 9.056 113.103 8.8 114.431 8.8ZM140.416 13.552H137.968V28H133.216V13.552H128.608V8.8H145.168L140.416 13.552ZM158.322 13.552H155.874V28H151.122V13.552H146.514V8.8H163.074L158.322 13.552Z" fill="black"/>
<path d="M169.54 25V28.42H166V25H169.54Z" fill="#FF6800"/>
<path d="M16 32L16 0L0 0L0 32H16Z" fill="#FFBDBD"/>
<path d="M32 32C40.8366 32 48 24.8366 48 16C48 7.16344 40.8366 0 32 0C23.1634 0 16 7.16344 16 16C16 24.8366 23.1634 32 32 32Z" fill="#4C40F7"/>
</svg>
