<svg width="174" height="32" viewBox="0 0 174 32" fill="none" xmlns="http://www.w3.org/2000/svg">
<path d="M153.54 23V26.42H150V23H153.54Z" fill="#FF6800"/>
<path d="M16 32L16 0L0 0L0 32H16Z" fill="#FFBDBD"/>
<path d="M32 32C40.8366 32 48 24.8366 48 16C48 7.16344 40.8366 0 32 0C23.1634 0 16 7.16344 16 16C16 24.8366 23.1634 32 32 32Z" fill="#4C40F7"/>
<path d="M72.398 11.636C73.382 11.636 74.306 11.828 75.17 12.212C76.046 12.584 76.808 13.1 77.456 13.76C78.104 14.408 78.614 15.17 78.986 16.046C79.37 16.922 79.562 17.852 79.562 18.836C79.562 19.832 79.37 20.768 78.986 21.644C78.614 22.508 78.104 23.264 77.456 23.912C76.808 24.56 76.046 25.07 75.17 25.442C74.294 25.814 73.358 26 72.362 26C71.366 26 70.43 25.814 69.554 25.442C68.69 25.07 67.934 24.56 67.286 23.912C66.638 23.264 66.128 22.508 65.756 21.644C65.384 20.768 65.198 19.832 65.198 18.836V10.16H68.762V18.836C68.762 19.328 68.858 19.796 69.05 20.24C69.242 20.672 69.5 21.05 69.824 21.374C70.148 21.698 70.526 21.956 70.958 22.148C71.402 22.34 71.87 22.436 72.362 22.436C72.866 22.436 73.34 22.34 73.784 22.148C74.228 21.956 74.612 21.698 74.936 21.374C75.26 21.05 75.518 20.672 75.71 20.24C75.902 19.796 75.998 19.328 75.998 18.836C75.998 18.332 75.902 17.858 75.71 17.414C75.518 16.97 75.26 16.586 74.936 16.262C74.612 15.938 74.228 15.68 73.784 15.488C73.34 15.296 72.866 15.2 72.362 15.2H68.798L72.398 11.636ZM97.6635 11.6V26H94.1355V20.6H87.9075V26H84.3435V15.128L87.9075 11.6V17.036H94.1355V11.6H97.6635ZM109.573 11.6C110.569 11.6 111.505 11.792 112.381 12.176C113.257 12.548 114.019 13.064 114.667 13.724C115.315 14.372 115.825 15.134 116.197 16.01C116.581 16.886 116.773 17.816 116.773 18.8V26H113.209V18.8C113.209 18.308 113.113 17.846 112.921 17.414C112.729 16.97 112.471 16.586 112.147 16.262C111.823 15.938 111.439 15.68 110.995 15.488C110.551 15.296 110.077 15.2 109.573 15.2C109.081 15.2 108.613 15.296 108.169 15.488C107.737 15.68 107.359 15.938 107.035 16.262C106.711 16.586 106.453 16.97 106.261 17.414C106.069 17.846 105.973 18.308 105.973 18.8C105.973 19.292 106.069 19.76 106.261 20.204C106.453 20.636 106.711 21.014 107.035 21.338C107.359 21.662 107.737 21.92 108.169 22.112C108.613 22.304 109.081 22.4 109.573 22.4H113.173L109.573 26C108.577 25.988 107.641 25.796 106.765 25.424C105.901 25.04 105.145 24.524 104.497 23.876C103.849 23.228 103.339 22.472 102.967 21.608C102.595 20.732 102.409 19.796 102.409 18.8C102.409 17.816 102.595 16.886 102.967 16.01C103.339 15.134 103.849 14.372 104.497 13.724C105.145 13.064 105.901 12.548 106.765 12.176C107.641 11.792 108.577 11.6 109.573 11.6ZM129.062 15.164H127.226V26H123.662V15.164H120.206V11.6H132.626L129.062 15.164ZM142.492 15.164H140.656V26H137.092V15.164H133.636V11.6H146.056L142.492 15.164Z" fill="black"/>
</svg>
